<svg width="14" height="14" viewBox="0 0 14 14" fill="none" xmlns="http://www.w3.org/2000/svg">
<path d="M6.49805 9C5.74805 8.87109 5.2793 8.60742 4.91016 8.23828C3.48633 6.82031 3.49805 4.82812 4.9043 3.42188L6.90234 1.41797C8.30859 0.0117188 10.3008 0 11.7246 1.42383C13.1426 2.84766 13.1309 4.83398 11.7305 6.24023L10.0078 7.95703C10.0664 7.57617 10.0312 7.14258 9.86719 6.76758L11.0156 5.61914C12.0293 4.60547 12.041 3.1582 11.0156 2.13281C9.99023 1.10742 8.54883 1.11328 7.52344 2.13281L5.61328 4.04297C4.59961 5.05664 4.59375 6.50977 5.61914 7.53516C6 7.91602 6.50391 8.15039 7.27734 8.20898L6.49805 9ZM6.64453 4.17188C7.39453 4.30078 7.86328 4.56445 8.23242 4.93359C9.65625 6.35156 9.64453 8.34375 8.23828 9.75L6.23438 11.7598C4.83398 13.1602 2.8418 13.1719 1.41797 11.748C0 10.3301 0.0117188 8.33789 1.41211 6.93164L3.13477 5.21484C3.07031 5.5957 3.11133 6.03516 3.27539 6.4043L2.12695 7.55273C1.10742 8.57227 1.10156 10.0137 2.12695 11.0449C3.15234 12.0645 4.59375 12.0586 5.61328 11.0391L7.5293 9.12891C8.54297 8.11523 8.54883 6.66211 7.52344 5.63672C7.14258 5.25586 6.63867 5.02734 5.86523 4.96289L6.64453 4.17188Z" fill="white"/>
</svg>
