<svg width="19" height="19" viewBox="0 0 19 19" fill="none" xmlns="http://www.w3.org/2000/svg">
<path d="M4.60156 16.2578C3.09375 16.2578 2.36719 15.5234 2.36719 14.0156V12.375C2.36719 12.2422 2.32812 12.1484 2.23438 12.0547L1.07812 10.8906C0.0078125 9.82812 0 8.79688 1.07812 7.72656L2.23438 6.57031C2.32812 6.47656 2.36719 6.375 2.36719 6.25V4.60938C2.36719 3.08594 3.09375 2.36719 4.60156 2.36719H6.24219C6.375 2.36719 6.46875 2.32812 6.5625 2.23438L7.72656 1.08594C8.79688 0.0078125 9.82031 0 10.8906 1.07812L12.0469 2.23438C12.1484 2.32812 12.2422 2.36719 12.375 2.36719H14.0156C15.5234 2.36719 16.25 3.10156 16.25 4.60938V6.25C16.25 6.375 16.2812 6.46875 16.3828 6.57031L17.5391 7.72656C18.6094 8.79688 18.6094 9.82812 17.5391 10.8906L16.3828 12.0547C16.2891 12.1484 16.25 12.2422 16.25 12.375V14.0156C16.25 15.5234 15.5234 16.2578 14.0156 16.2578H12.375C12.2422 16.2578 12.1484 16.2891 12.0469 16.3906L10.8906 17.5469C9.82031 18.6094 8.79688 18.6172 7.72656 17.5469L6.5625 16.3906C6.46875 16.2891 6.375 16.2578 6.24219 16.2578H4.60156ZM8.44531 13.2344C8.78906 13.2344 9.08594 13.0547 9.28906 12.7578L12.9219 7.21094C13.0547 7.01562 13.1328 6.79688 13.1328 6.60156C13.1328 6.11719 12.7109 5.77344 12.2422 5.77344C11.9297 5.77344 11.6797 5.94531 11.4688 6.27344L8.42969 11.1094L7.0625 9.4375C6.85156 9.17969 6.64062 9.07031 6.35938 9.07031C5.875 9.07031 5.48438 9.45312 5.48438 9.9375C5.48438 10.1641 5.5625 10.3672 5.74219 10.5781L7.57031 12.7734C7.82031 13.0703 8.10156 13.2344 8.44531 13.2344Z" fill="white"/>
</svg>
