<svg width="17" height="10" viewBox="0 0 17 10" fill="none" xmlns="http://www.w3.org/2000/svg">
<path d="M8.125 0C8.02734 0 7.9362 0.0195312 7.85156 0.0585938C7.77344 0.0976562 7.69857 0.152995 7.62695 0.224609L0.205078 8.02734C0.0683594 8.15755 0 8.32031 0 8.51562C0 8.63281 0.0292969 8.74349 0.0878906 8.84766C0.146484 8.95182 0.227865 9.0332 0.332031 9.0918C0.429688 9.15039 0.54362 9.17969 0.673828 9.17969C0.849609 9.17969 1.00586 9.11784 1.14258 8.99414L8.125 1.65039L15.1074 8.99414C15.2441 9.11784 15.4004 9.17969 15.5762 9.17969C15.7064 9.17969 15.8203 9.15039 15.918 9.0918C16.0221 9.0332 16.1035 8.95182 16.1621 8.84766C16.2207 8.74349 16.25 8.63281 16.25 8.51562C16.25 8.32031 16.1849 8.15755 16.0547 8.02734L8.62305 0.224609C8.55143 0.152995 8.47331 0.0976562 8.38867 0.0585938C8.31055 0.0195312 8.22266 0 8.125 0Z" fill="white"/>
</svg>
