<svg width="15" height="15" viewBox="0 0 15 15" xmlns="http://www.w3.org/2000/svg">
  <defs>
    <linearGradient id="mainGradient" x1="100%" y1="0%" x2="0%" y2="0%">
      <stop offset="0%" stop-color="#fac175" />
      <stop offset="68%" stop-color="#ff006a" />
      <stop offset="100%" stop-color="#8b5cf6" />
    </linearGradient>
  </defs>

  <path
    d="M14.2676 10.7031C14.2676 10.9049 14.1992 11.0742 14.0625 11.2109C13.9323 11.3411 13.776 11.4062 13.5938 11.4062C13.4115 11.4062 13.2552 11.3379 13.125 11.2012C12.9948 11.0579 12.9297 10.9017 12.9297 10.7324V6.00586L13.0566 1.99219L11.4844 3.71094L1.14258 14.043C1.00586 14.1797 0.852865 14.248 0.683594 14.248C0.559896 14.248 0.445964 14.2155 0.341797 14.1504C0.23763 14.0853 0.152995 14.0007 0.0878906 13.8965C0.0292969 13.7923 0 13.6816 0 13.5645C0 13.3952 0.0683594 13.2422 0.205078 13.1055L10.5371 2.75391L12.2559 1.20117L7.75391 1.30859H3.51562C3.33984 1.30859 3.18359 1.24674 3.04688 1.12305C2.91667 0.992839 2.85156 0.839844 2.85156 0.664062C2.85156 0.488281 2.91341 0.335286 3.03711 0.205078C3.16732 0.0683594 3.33333 0 3.53516 0H13.5352C13.7565 0 13.929 0.0651042 14.0527 0.195312C14.1829 0.325521 14.248 0.498047 14.248 0.712891L14.2676 10.7031Z"
    fill="url(#mainGradient)"
  />
</svg>
