<svg width="72" height="25" viewBox="0 0 72 25" fill="none" xmlns="http://www.w3.org/2000/svg">
<g clip-path="url(#clip0_2958_1240)">
<path d="M43.5959 18.2836H42.6342C42.6146 18.2836 42.5975 18.297 42.5935 18.3162C42.5283 18.6199 42.0335 20.9418 42.0059 21.1366C42.0039 21.1511 41.9946 21.1511 41.9925 21.1366C41.9617 20.9418 41.4264 18.6166 41.3571 18.3153C41.3531 18.2966 41.3359 18.2832 41.3167 18.2832H40.4192C40.3996 18.2832 40.383 18.2961 40.3788 18.3153C40.3091 18.6161 39.7721 20.9418 39.742 21.1366C39.7392 21.1545 39.7287 21.1545 39.7259 21.1366C39.6975 20.9418 39.2043 18.6203 39.1398 18.3162C39.1356 18.297 39.1188 18.2832 39.0988 18.2832H38.1371C38.1095 18.2832 38.0895 18.3091 38.0967 18.3358L39.1426 22.2522C39.1476 22.2705 39.1639 22.2831 39.183 22.2831H40.1944C40.2137 22.2831 40.2302 22.2701 40.2348 22.2513C40.2982 21.9839 40.743 20.1098 40.8436 19.6713C40.8485 19.6496 40.879 19.6496 40.8841 19.6713C40.9859 20.1094 41.4359 21.9842 41.4999 22.2513C41.5045 22.2701 41.5211 22.2831 41.5403 22.2831H42.5491C42.5679 22.2831 42.5847 22.2705 42.5897 22.2522L43.6356 18.3358C43.6426 18.3095 43.6226 18.2832 43.5952 18.2832L43.5959 18.2836Z" fill="white"/>
<path d="M46.7082 18.4576C46.4902 18.3412 46.2305 18.2832 45.9298 18.2832H44.3747C44.3519 18.2832 44.333 18.302 44.333 18.3249V22.2413C44.333 22.2642 44.3519 22.2831 44.3747 22.2831H45.2389C45.2618 22.2831 45.2806 22.2642 45.2806 22.2413V21.0347H45.9025C46.2084 21.0347 46.4726 20.9775 46.6945 20.8629C46.9164 20.7486 47.0875 20.5891 47.2073 20.3851C47.3269 20.1811 47.3871 19.9411 47.3871 19.6659C47.3871 19.3905 47.3282 19.1514 47.2111 18.9437C47.0938 18.7359 46.926 18.574 46.7079 18.4576H46.7082ZM46.4117 19.9905C46.3616 20.0834 46.2865 20.156 46.186 20.2078C46.0858 20.2596 45.9614 20.2859 45.813 20.2859H45.281V19.0509H45.8103C45.9589 19.0509 46.0837 19.076 46.1846 19.1259C46.2856 19.176 46.3612 19.2474 46.4117 19.3396C46.4618 19.4318 46.4867 19.5408 46.4867 19.6659C46.4867 19.7911 46.4618 19.8979 46.4117 19.9909V19.9905Z" fill="white"/>
<path d="M51.7737 18.7798C51.6181 18.623 51.4428 18.5061 51.248 18.4294C51.0531 18.3526 50.8503 18.3142 50.6396 18.3142C50.3049 18.3142 50.0112 18.4002 49.7584 18.5721C49.5051 18.7439 49.3084 18.9797 49.1676 19.2797C49.0266 19.5797 48.9565 19.9233 48.9565 20.3102C48.9565 20.6969 49.0284 21.0399 49.1714 21.3374C49.3144 21.6353 49.5173 21.8681 49.7798 22.0367C50.0421 22.2047 50.3529 22.289 50.7125 22.289C50.9712 22.289 51.2004 22.2473 51.3998 22.1635C51.5992 22.0801 51.7644 21.9694 51.8964 21.8317C52.0164 21.7062 52.1064 21.5713 52.1666 21.4271C52.1758 21.4045 52.1632 21.3791 52.1404 21.3715L51.7758 21.2555C51.7552 21.2492 51.7339 21.2593 51.7251 21.2786C51.6798 21.3778 51.6154 21.47 51.532 21.5551C51.4394 21.6502 51.3247 21.7266 51.1887 21.7837C51.0522 21.8409 50.895 21.8698 50.7164 21.8698C50.4531 21.8698 50.2245 21.8075 50.0308 21.6824C49.8373 21.5576 49.688 21.3824 49.5824 21.1567C49.484 20.946 49.4322 20.7024 49.4255 20.4266H52.2343C52.2571 20.4266 52.276 20.4077 52.276 20.3849V20.2237C52.276 19.8988 52.2312 19.6159 52.1421 19.3751C52.0527 19.135 51.9301 18.9359 51.7744 18.779L51.7737 18.7798ZM49.5769 19.434C49.6788 19.2233 49.8211 19.054 50.003 18.9254C50.1849 18.7974 50.3977 18.7331 50.6404 18.7331C50.8832 18.7331 51.0952 18.7961 51.2691 18.9221C51.4432 19.0481 51.5771 19.2199 51.671 19.4374C51.7474 19.6142 51.7924 19.8104 51.8066 20.0249H49.4272C49.4392 19.8125 49.4889 19.6155 49.5769 19.434Z" fill="white"/>
<path d="M55.4489 18.4773C55.2533 18.3684 55.0246 18.3142 54.7634 18.3142C54.4726 18.3142 54.2145 18.3885 53.9887 18.5374C53.8084 18.6563 53.667 18.8353 53.5636 19.0727L53.5609 18.4073C53.5609 18.3843 53.5423 18.3655 53.5192 18.3655H53.1526C53.1295 18.3655 53.1108 18.3843 53.1108 18.4073V22.1647C53.1108 22.1877 53.1295 22.2064 53.1526 22.2064H53.5364C53.5594 22.2064 53.5781 22.1877 53.5781 22.1647V19.8121C53.5781 19.5921 53.6244 19.4014 53.7171 19.2401C53.8097 19.0786 53.9366 18.955 54.0967 18.8691C54.2569 18.7832 54.4381 18.7402 54.6396 18.7402C54.9348 18.7402 55.1706 18.8311 55.347 19.0135C55.5236 19.1953 55.6116 19.4435 55.6116 19.7574V22.165C55.6116 22.1881 55.6305 22.2068 55.6533 22.2068H56.0339C56.0567 22.2068 56.0756 22.1881 56.0756 22.165V19.7231C56.0756 19.4186 56.02 19.162 55.9091 18.9534C55.7981 18.7452 55.6446 18.5862 55.4489 18.4778V18.4773Z" fill="white"/>
<path d="M60.104 18.3655H59.7339C59.7111 18.3655 59.6922 18.3843 59.6922 18.4073V19.1039H59.6442C59.5937 18.9872 59.5212 18.8674 59.4261 18.7452C59.3309 18.6225 59.2057 18.5203 59.0497 18.4377C58.8941 18.3551 58.6992 18.3142 58.4655 18.3142C58.1518 18.3142 57.8756 18.3968 57.6373 18.5616C57.3993 18.7264 57.2135 18.9563 57.0808 19.2504C56.9482 19.5447 56.8813 19.8879 56.8813 20.2793C56.8813 20.6706 56.949 21.0077 57.0842 21.2894C57.2194 21.571 57.4055 21.7875 57.6425 21.9386C57.8794 22.0896 58.1501 22.165 58.4547 22.165C58.6838 22.165 58.8762 22.1279 59.0318 22.0532C59.1874 21.979 59.3143 21.8839 59.4114 21.7683C59.5086 21.6529 59.5825 21.5351 59.633 21.4163H59.6775V22.2786C59.6775 22.6311 59.5745 22.8919 59.3684 23.0601C59.1623 23.2287 58.8899 23.3125 58.5507 23.3125C58.3375 23.3125 58.1577 23.2833 58.0112 23.2249C57.8648 23.1664 57.7452 23.091 57.652 22.9984C57.5707 22.9169 57.5038 22.8334 57.4518 22.7475C57.4396 22.7279 57.4143 22.7212 57.3947 22.7329L57.0796 22.9241C57.0608 22.9357 57.0537 22.9599 57.0642 22.9795C57.1381 23.1163 57.2373 23.2386 57.3621 23.3468C57.4972 23.4635 57.6636 23.5557 57.8619 23.6233C58.06 23.691 58.2895 23.7247 58.5507 23.7247C58.8577 23.7247 59.1314 23.6738 59.3718 23.5719C59.6122 23.4702 59.8012 23.3136 59.9389 23.103C60.076 22.8923 60.145 22.6245 60.145 22.299V18.4073C60.145 18.3843 60.1261 18.3655 60.1032 18.3655H60.104ZM59.5482 21.0607C59.4564 21.2818 59.3242 21.4513 59.1514 21.5692C58.9783 21.6873 58.7697 21.7462 58.5244 21.7462C58.2791 21.7462 58.0631 21.6841 57.889 21.559C57.7151 21.4342 57.5819 21.2607 57.4905 21.0386C57.3989 20.8167 57.3533 20.5601 57.3533 20.2689C57.3533 19.9776 57.3983 19.7239 57.489 19.4925C57.5794 19.2612 57.7116 19.0772 57.8857 18.9409C58.0596 18.8044 58.2728 18.7364 58.5248 18.7364C58.7768 18.7364 58.985 18.8023 59.157 18.9338C59.3288 19.0656 59.4598 19.2462 59.5503 19.4767C59.641 19.707 59.6859 19.9706 59.6859 20.2685C59.6859 20.5664 59.64 20.8391 59.5488 21.0603L59.5482 21.0607Z" fill="white"/>
<path d="M61.7742 18.3628H61.3903C61.3673 18.3628 61.3486 18.3815 61.3486 18.4045V22.1619C61.3486 22.185 61.3673 22.2036 61.3903 22.2036H61.7742C61.7972 22.2036 61.8159 22.185 61.8159 22.1619V18.4045C61.8159 18.3815 61.7972 18.3628 61.7742 18.3628Z" fill="white"/>
<path d="M61.5814 17.8192C61.7273 17.8192 61.8456 17.701 61.8456 17.5551C61.8456 17.4093 61.7273 17.291 61.5814 17.291C61.4357 17.291 61.3174 17.4093 61.3174 17.5551C61.3174 17.701 61.4357 17.8192 61.5814 17.8192Z" fill="white"/>
<path d="M65.3903 18.4773C65.1947 18.3684 64.9661 18.3142 64.7048 18.3142C64.4141 18.3142 64.1559 18.3885 63.9301 18.5374C63.75 18.6563 63.6084 18.8353 63.505 19.0727L63.5025 18.4073C63.5025 18.3843 63.4837 18.3655 63.4608 18.3655H63.094C63.0711 18.3655 63.0522 18.3843 63.0522 18.4073V22.1647C63.0522 22.1877 63.0711 22.2064 63.094 22.2064H63.4778C63.5008 22.2064 63.5195 22.1877 63.5195 22.1647V19.8121C63.5195 19.5921 63.566 19.4014 63.6585 19.2401C63.7511 19.0786 63.878 18.955 64.0381 18.8691C64.1983 18.7832 64.3795 18.7402 64.581 18.7402C64.8764 18.7402 65.1121 18.8311 65.2886 19.0135C65.465 19.1953 65.553 19.4435 65.553 19.7574V22.165C65.553 22.1881 65.5719 22.2068 65.5947 22.2068H65.9753C65.9983 22.2068 66.017 22.1881 66.017 22.165V19.7231C66.017 19.4186 65.9616 19.162 65.8505 18.9534C65.7395 18.7452 65.586 18.5862 65.3903 18.4778V18.4773Z" fill="white"/>
<path d="M69.6661 18.7798C69.5105 18.623 69.3352 18.5061 69.1404 18.4294C68.9455 18.3526 68.7428 18.3142 68.5322 18.3142C68.1975 18.3142 67.9038 18.4002 67.651 18.5721C67.3977 18.7439 67.2007 18.9797 67.0602 19.2797C66.9192 19.5797 66.8491 19.9233 66.8491 20.3102C66.8491 20.6969 66.9207 21.0399 67.064 21.3374C67.207 21.6353 67.4099 21.8681 67.6722 22.0367C67.9346 22.2047 68.2455 22.289 68.6051 22.289C68.8638 22.289 69.0929 22.2473 69.2924 22.1635C69.4918 22.0801 69.6569 21.9694 69.7887 21.8317C69.9089 21.7062 69.999 21.5713 70.0592 21.4271C70.0684 21.4045 70.0558 21.3791 70.0329 21.3715L69.6682 21.2555C69.6478 21.2492 69.6265 21.2593 69.6177 21.2786C69.5722 21.3778 69.508 21.47 69.4245 21.5551C69.332 21.6502 69.2171 21.7266 69.0811 21.7837C68.9447 21.8409 68.7874 21.8698 68.6089 21.8698C68.3457 21.8698 68.1169 21.8075 67.9234 21.6824C67.7299 21.5576 67.5804 21.3824 67.4748 21.1567C67.3764 20.946 67.3247 20.7024 67.3181 20.4266H70.1266C70.1497 20.4266 70.1684 20.4077 70.1684 20.3849V20.2237C70.1684 19.8988 70.1238 19.6159 70.0345 19.3751C69.9453 19.135 69.8226 18.9359 69.667 18.779L69.6661 18.7798ZM67.4691 19.434C67.5708 19.2233 67.7131 19.054 67.895 18.9254C68.0769 18.7974 68.2897 18.7331 68.5326 18.7331C68.7754 18.7331 68.9872 18.7961 69.1613 18.9221C69.3352 19.0481 69.4691 19.2199 69.563 19.4374C69.6394 19.6142 69.6845 19.8104 69.6986 20.0249H67.3192C67.3314 19.8125 67.3809 19.6155 67.4691 19.434Z" fill="white"/>
<path d="M32.701 18.3412C32.6854 18.3159 32.7037 18.2832 32.7334 18.2832H33.1984C33.2117 18.2832 33.2241 18.2903 33.2311 18.3018L34.3182 20.1318C34.3252 20.1434 34.3376 20.1504 34.3509 20.1504H34.3545C34.3679 20.1504 34.3804 20.1434 34.3873 20.1318L35.4745 18.3018C35.4814 18.2903 35.4938 18.2832 35.5073 18.2832H35.9721C36.002 18.2832 36.0203 18.3159 36.0046 18.3412L34.6006 20.6257C34.5968 20.6316 34.5949 20.6384 34.5949 20.6455V22.2451C34.5949 22.2661 34.578 22.2832 34.5568 22.2832H34.1486C34.1277 22.2832 34.1105 22.2661 34.1105 22.2451V20.6455C34.1105 20.6384 34.1086 20.6316 34.105 20.6257L32.701 18.3412Z" fill="white"/>
<path d="M29.7525 22.2832C29.7315 22.2832 29.7144 22.2661 29.7144 22.2451V18.3213C29.7144 18.3003 29.7315 18.2832 29.7525 18.2832H31.1128C31.3915 18.2832 31.6212 18.3314 31.8022 18.4277C31.9833 18.5228 32.118 18.6511 32.2065 18.8125C32.2951 18.9727 32.3393 19.1504 32.3393 19.3457C32.3393 19.5175 32.3088 19.6596 32.2475 19.7714C32.1877 19.8834 32.1083 19.972 32.0092 20.0371C31.9165 20.099 31.8159 20.1457 31.7079 20.1769C31.6978 20.1798 31.6909 20.1887 31.6909 20.1992C31.6909 20.2112 31.7003 20.2213 31.7125 20.2224C31.8277 20.2337 31.9435 20.276 32.0601 20.3497C32.1837 20.4278 32.2873 20.5398 32.3705 20.6855C32.454 20.8314 32.4957 21.0097 32.4957 21.2207C32.4957 21.4213 32.45 21.6015 32.3589 21.7617C32.2677 21.9219 32.1239 22.0489 31.9273 22.1426C31.7305 22.2363 31.4747 22.2832 31.1597 22.2832H29.7525ZM30.1987 21.8154C30.1987 21.8365 30.2159 21.8535 30.2368 21.8535H31.1597C31.4761 21.8535 31.7006 21.7923 31.8334 21.6699C31.9677 21.5463 32.0347 21.3965 32.0347 21.2207C32.0347 21.0853 32.0001 20.9603 31.9311 20.8457C31.8622 20.7299 31.7639 20.6373 31.6363 20.5683C31.5086 20.4981 31.3576 20.4628 31.1831 20.4628H30.2368C30.2159 20.4628 30.1987 20.48 30.1987 20.5009V21.8154ZM30.1987 20.003C30.1987 20.024 30.2159 20.0411 30.2368 20.0411H31.0972C31.2429 20.0411 31.3745 20.0123 31.4917 19.955C31.6102 19.8979 31.7039 19.8171 31.773 19.7129C31.8433 19.6087 31.8784 19.4863 31.8784 19.3457C31.8784 19.1699 31.8172 19.0208 31.6947 18.8984C31.5725 18.7747 31.3784 18.7129 31.1128 18.7129H30.2368C30.2159 18.7129 30.1987 18.7299 30.1987 18.751V20.003Z" fill="white"/>
<path d="M5.42476 0.670337L0.670476 5.42537C0.24 5.85591 0 6.43505 0 7.04086V23.2377C0 23.8702 0.510476 24.3807 1.14286 24.3807H23.2381C23.8705 24.3807 24.381 23.8702 24.381 23.2377V1.14279C24.381 0.510312 23.8705 -0.000244141 23.2381 -0.000244141H7.04381C6.4381 -0.000244141 5.85524 0.239794 5.42857 0.670337H5.42476Z" fill="url(#paint0_radial_2958_1240)"/>
<path d="M17.2504 16.0629H15.4854V8.95972H20.1905V10.6138H17.2504V11.8813H20.0214V13.4943H17.2504V16.0632V16.0629Z" fill="#FD266C"/>
<path opacity="0.05" d="M15.0201 13.0801H16.7696C16.5107 14.8881 14.9909 16.0838 13.1495 16.0838C11.1331 16.0838 9.49135 14.5722 9.49135 12.5368C9.48714 12.0634 9.57889 11.5942 9.76104 11.1575C9.9432 10.7208 10.212 10.3258 10.551 9.99655C11.2468 9.32057 12.1809 8.94798 13.1495 8.96C14.9738 8.96 16.5361 10.1649 16.7583 11.9439H15.0105C14.485 9.92874 11.2105 10.1258 11.2105 12.5368C11.2105 14.9481 14.5261 15.1257 15.0201 13.0807V13.0801Z" fill="#002447"/>
<path d="M14.6612 13.0802C14.3611 14.0973 13.2928 14.7021 12.2412 14.4488C11.1891 14.1947 10.5299 13.1746 10.7483 12.1378C10.9664 11.1007 11.9838 10.4173 13.0527 10.5904C13.4906 10.6498 13.8944 10.8598 14.1953 11.1844C14.4032 11.3991 14.5593 11.6589 14.6514 11.9436H16.3481C16.1259 10.1606 14.5593 8.96001 12.7393 8.96001C11.7706 8.94767 10.8362 9.32007 10.1402 9.99599C9.8009 10.3254 9.53198 10.7205 9.34977 11.1574C9.16756 11.5943 9.07585 12.0638 9.08023 12.5374C9.08023 14.5729 10.7124 16.0838 12.7398 16.0838C14.5798 16.0838 16.0953 14.8881 16.3587 13.0802H14.661H14.6612Z" fill="#FD266C"/>
<path opacity="0.05" d="M9.38961 15.0283H6.93319L6.53165 16.0605H4.65186L7.5286 8.95093H8.78235L11.7735 16.0628H9.78885L9.38902 15.0283H9.38961ZM7.63144 13.2684L7.56989 13.429H8.76243L8.72111 13.3084L8.16587 11.7839L7.63144 13.2684Z" fill="#002447"/>
<path d="M8.92412 15.0283H6.47176L6.07051 16.0605H4.19043L7.06746 8.95093H8.32123L11.3124 16.0628H9.32856L8.92412 15.0283ZM7.17001 13.2684L7.10877 13.429H8.30129L8.25969 13.3084L7.70473 11.7839L7.1703 13.2684H7.17001Z" fill="#FD266C"/>
<path d="M51.6519 13.1676C51.5993 13.1676 51.5566 13.125 51.5566 13.0724V2.17654C51.5566 2.12395 51.5993 2.0813 51.6519 2.0813H58.9166C58.9694 2.0813 59.0119 2.12395 59.0119 2.17654V3.68993C59.0119 3.74254 58.9694 3.78517 58.9166 3.78517H53.6161C53.5635 3.78517 53.5208 3.82781 53.5208 3.8804V6.71819C53.5208 6.7708 53.5635 6.81343 53.6161 6.81343H58.5224C58.5749 6.81343 58.6176 6.85608 58.6176 6.90867V8.38486C58.6176 8.43747 58.5749 8.4801 58.5224 8.4801H53.6161C53.5635 8.4801 53.5208 8.52275 53.5208 8.57534V13.0724C53.5208 13.125 53.4782 13.1676 53.4256 13.1676H51.6519Z" fill="white"/>
<path d="M45.3517 13.3477C44.3347 13.3477 43.432 13.1121 42.6433 12.6409C41.8595 12.1697 41.2444 11.505 40.7979 10.6468C40.3517 9.78872 40.1284 8.78426 40.1284 7.63346C40.1284 6.47275 40.3492 5.46333 40.7905 4.60519C41.237 3.74706 41.8545 3.08237 42.6433 2.61114C43.432 2.13992 44.3347 1.9043 45.3517 1.9043C45.9766 1.9043 46.5595 1.99854 47.1 2.18704C47.6408 2.37056 48.1195 2.63843 48.536 2.9906C48.9578 3.33782 49.305 3.75449 49.5778 4.2406C49.8341 4.69742 50.0117 5.209 50.1103 5.77533C50.1204 5.83287 50.0757 5.88494 50.0174 5.88494H48.204C48.1591 5.88494 48.1204 5.85338 48.1101 5.80955C48.0351 5.48801 47.9218 5.20064 47.7698 4.94746C47.6061 4.66967 47.4052 4.43654 47.1671 4.24805C46.929 4.0546 46.6587 3.91075 46.356 3.81651C46.0536 3.71729 45.7237 3.66769 45.3665 3.66769C44.6918 3.66769 44.1115 3.83386 43.6254 4.1662C43.1393 4.49359 42.7648 4.95489 42.5019 5.55013C42.2391 6.14041 42.1075 6.83485 42.1075 7.63346C42.1075 8.42712 42.2366 9.11908 42.4945 9.70936C42.7574 10.2996 43.1318 10.7609 43.6179 11.0933C44.109 11.4207 44.6918 11.5844 45.3665 11.5844C45.7237 11.5844 46.0511 11.5372 46.3486 11.443C46.6513 11.3438 46.9216 11.1999 47.1597 11.0114C47.3978 10.8229 47.5987 10.5923 47.7623 10.3195C47.9191 10.066 48.0372 9.77816 48.1168 9.45611C48.1275 9.41289 48.1659 9.38197 48.2105 9.38197H50.0172C50.0757 9.38197 50.1202 9.43414 50.1101 9.49171C50.0115 10.0533 49.8339 10.5623 49.5778 11.0189C49.305 11.505 48.9578 11.9216 48.536 12.2689C48.1145 12.6161 47.6334 12.884 47.0926 13.0724C46.557 13.256 45.9766 13.3477 45.3517 13.3477Z" fill="white"/>
<path d="M29.8096 13.1676C29.7438 13.1676 29.6977 13.1024 29.72 13.0403L33.6103 2.14452C33.6238 2.10661 33.6597 2.0813 33.7 2.0813H36.0358C36.0762 2.0813 36.112 2.10665 36.1256 2.14461L40.0014 13.0405C40.0233 13.1025 39.9774 13.1676 39.9117 13.1676H37.9499C37.909 13.1676 37.8726 13.1414 37.8597 13.1025L35.9395 7.34172C35.7459 6.72663 35.5425 6.07435 35.3292 5.38486C35.1252 4.72052 34.8939 3.94265 34.6355 3.05132C34.6177 2.9904 34.6635 2.92951 34.7269 2.92951H35.0166C35.08 2.92951 35.1256 2.9904 35.108 3.0513C34.8492 3.94265 34.6155 4.72052 34.4067 5.38486C34.1934 6.07435 33.985 6.72663 33.7816 7.34172L31.8096 13.1032C31.7964 13.1417 31.7602 13.1676 31.7195 13.1676H29.8096ZM32.121 10.5188C32.0684 10.5188 32.0257 10.4762 32.0257 10.4236V8.99945C32.0257 8.94686 32.0684 8.90421 32.121 8.90421H37.6C37.6528 8.90421 37.6953 8.94686 37.6953 8.99945V10.4236C37.6953 10.4762 37.6528 10.5188 37.6 10.5188H32.121Z" fill="white"/>
</g>
<defs>
<radialGradient id="paint0_radial_2958_1240" cx="0" cy="0" r="1" gradientUnits="userSpaceOnUse" gradientTransform="translate(0 -0.000244141) rotate(45) scale(34.4798)">
<stop stop-color="white"/>
<stop offset="1" stop-color="white"/>
</radialGradient>
<clipPath id="clip0_2958_1240">
<rect width="72" height="24.381" fill="white"/>
</clipPath>
</defs>
</svg>
