<svg width="145" height="25" viewBox="0 0 145 25" fill="none" xmlns="http://www.w3.org/2000/svg">
<g clip-path="url(#clip0_2958_1262)">
<path d="M12.4774 0C5.58629 0 0 5.59644 0 12.5C0 19.4036 5.58629 25 12.4774 25C19.3684 25 24.9547 19.4036 24.9547 12.5C24.9547 5.59644 19.3684 0 12.4774 0ZM8.73415 18.75H6.23868V6.25H8.73415V18.75ZM18.7161 18.75H11.2296V16.25H18.7161V18.75ZM18.7161 13.7485H11.2296V11.2485H18.7161V13.7485ZM18.7161 8.75H11.2296V6.25H18.7161V8.75Z" fill="white"/>
<path d="M36.1299 16.3874C36.8067 17.0738 37.6564 17.4168 38.6799 17.4168C39.5379 17.4168 40.2435 17.235 40.7967 16.8711C41.3493 16.5075 41.7085 15.9949 41.8735 15.3334H44.4979C44.2664 16.6398 43.6229 17.6856 42.5667 18.4708C41.5102 19.2563 40.2149 19.6489 38.6799 19.6489C37.4423 19.6489 36.3567 19.3803 35.4246 18.8428C34.492 18.3057 33.7658 17.5822 33.2458 16.6727C32.7261 15.7636 32.4576 14.7797 32.4414 13.7213H34.9914C35.0738 14.8126 35.4532 15.7016 36.1299 16.3874ZM34.9417 12.9029C34.9417 12.622 34.9746 12.25 35.0408 11.7869H41.7499C41.6838 10.894 41.3576 10.1748 40.772 9.62911C40.1858 9.08349 39.4061 8.8107 38.4323 8.8107C37.5246 8.8107 36.7776 9.07537 36.192 9.60434C35.6058 10.1337 35.2223 10.861 35.0408 11.7869H32.4908C32.6393 10.8444 32.9693 9.98879 33.4811 9.2199C33.9926 8.45105 34.6732 7.84773 35.5235 7.4094C36.3735 6.97149 37.3432 6.7522 38.4323 6.7522C39.7032 6.7522 40.7882 7.02926 41.6879 7.58299C42.5873 8.13714 43.2638 8.86455 43.7179 9.76552C44.1717 10.6669 44.3988 11.6547 44.3988 12.7293C44.3988 13.0269 44.382 13.3578 44.3493 13.7213H34.9914C34.9579 13.3246 34.9417 13.0517 34.9417 12.9029Z" fill="white"/>
<path d="M46.2288 3.96508H44.2485V1.68335H48.8779V19.4659H46.2288V3.96508Z" fill="white"/>
<path d="M54.0526 16.3874C54.7291 17.0738 55.5791 17.4168 56.6026 17.4168C57.4605 17.4168 58.1661 17.235 58.7191 16.8711C59.272 16.5075 59.6308 15.9949 59.7961 15.3334H62.4202C62.1891 16.6398 61.5452 17.6856 60.4894 18.4708C59.4329 19.2563 58.1373 19.6489 56.6026 19.6489C55.3646 19.6489 54.2794 19.3803 53.347 18.8428C52.4144 18.3057 51.6885 17.5822 51.1685 16.6727C50.6485 15.7636 50.3802 14.7797 50.3638 13.7213H52.9138C52.9961 14.8126 53.3755 15.7016 54.0526 16.3874ZM52.8644 12.9029C52.8644 12.622 52.897 12.25 52.9632 11.7869H59.6723C59.6061 10.894 59.2799 10.1748 58.6944 9.62911C58.1085 9.08349 57.3285 8.8107 56.3549 8.8107C55.447 8.8107 54.6999 9.07537 54.1144 9.60434C53.5285 10.1337 53.1447 10.861 52.9632 11.7869H50.4135C50.562 10.8444 50.8917 9.98879 51.4035 9.2199C51.9149 8.45105 52.5958 7.84773 53.4461 7.4094C54.2958 6.97149 55.2655 6.7522 56.3549 6.7522C57.6255 6.7522 58.7105 7.02926 59.6105 7.58299C60.5097 8.13714 61.1864 8.86455 61.6405 9.76552C62.0941 10.6669 62.3211 11.6547 62.3211 12.7293C62.3211 13.0269 62.3047 13.3578 62.2717 13.7213H52.9138C52.8805 13.3246 52.8644 13.0517 52.8644 12.9029Z" fill="white"/>
<path d="M64.9293 9.20749H62.9487V6.95061H67.5534V9.05873C67.8505 8.34799 68.3211 7.78573 68.9646 7.37223C69.6084 6.95908 70.3758 6.7522 71.267 6.7522C72.2079 6.7522 73.037 6.97537 73.7552 7.42182C74.4728 7.86826 74.9558 8.48011 75.2031 9.25708C75.4837 8.52976 76.0078 7.93026 76.7752 7.45899C77.5428 6.98779 78.3802 6.7522 79.2881 6.7522C80.6414 6.7522 81.7143 7.18234 82.5064 8.04184C83.2987 8.90179 83.6949 10.0426 83.6949 11.4644V19.4504H81.0705V12.2085C81.0705 11.2497 80.8393 10.4809 80.3776 9.90193C79.9152 9.3234 79.2964 9.0339 78.5208 9.0339C77.6458 9.0339 76.9443 9.38108 76.4164 10.0756C75.8878 10.77 75.6243 11.6132 75.6243 12.6053V19.4504H72.9752V12.2085C72.9752 11.2497 72.7481 10.4809 72.2943 9.90193C71.8402 9.3234 71.2255 9.0339 70.4502 9.0339C69.5917 9.0339 68.8943 9.3854 68.3581 10.088C67.8217 10.7909 67.5534 11.6299 67.5534 12.6053V19.4504H64.9293V9.20749Z" fill="white"/>
<path d="M88.8451 16.3874C89.5216 17.0738 90.3713 17.4168 91.3951 17.4168C92.253 17.4168 92.9583 17.235 93.5115 16.8711C94.0645 16.5075 94.4233 15.9949 94.5886 15.3334H97.2127C96.9813 16.6398 96.3377 17.6856 95.2818 18.4708C94.2254 19.2563 92.9298 19.6489 91.3951 19.6489C90.1571 19.6489 89.0715 19.3803 88.1395 18.8428C87.2068 18.3057 86.4807 17.5822 85.961 16.6727C85.441 15.7636 85.1724 14.7797 85.1562 13.7213H87.7063C87.7886 14.8126 88.168 15.7016 88.8451 16.3874ZM87.6568 12.9029C87.6568 12.622 87.6895 12.25 87.7557 11.7869H94.4648C94.3986 10.894 94.0724 10.1748 93.4868 9.62911C92.901 9.08349 92.121 8.8107 91.1474 8.8107C90.2395 8.8107 89.4924 9.07537 88.9068 9.60434C88.321 10.1337 87.9371 10.861 87.7557 11.7869H85.206C85.3545 10.8444 85.6842 9.98879 86.196 9.2199C86.7074 8.45105 87.3883 7.84773 88.2386 7.4094C89.0883 6.97149 90.058 6.7522 91.1474 6.7522C92.418 6.7522 93.503 7.02926 94.403 7.58299C95.3024 8.13714 95.9786 8.86455 96.4327 9.76552C96.8865 10.6669 97.1136 11.6547 97.1136 12.7293C97.1136 13.0269 97.0971 13.3578 97.0642 13.7213H87.7063C87.673 13.3246 87.6568 13.0517 87.6568 12.9029Z" fill="white"/>
<path d="M99.6202 9.20749H97.6396V6.95061H102.244V9.05873C102.574 8.3147 103.09 7.74423 103.792 7.3474C104.493 6.95061 105.306 6.7522 106.23 6.7522C107.633 6.7522 108.759 7.21096 109.609 8.12867C110.459 9.04631 110.884 10.2491 110.884 11.7372V19.4504H108.236V12.2829C108.236 11.3404 107.979 10.5801 107.468 10.0011C106.956 9.42258 106.28 9.13308 105.438 9.13308C104.513 9.13308 103.75 9.46405 103.148 10.1251C102.545 10.7866 102.244 11.6299 102.244 12.6549V19.4504H99.6202V9.20749Z" fill="white"/>
<path d="M115.523 18.3407C114.756 17.5966 114.372 16.5716 114.372 15.2654V9.2138H111.847V6.95692H114.372V3.08789H116.996V6.95692H120.611V9.2138H116.996V15.1662C116.996 15.811 117.165 16.3113 117.503 16.6666C117.841 17.0224 118.308 17.1998 118.902 17.1998H120.611V19.4567H118.63C117.326 19.4567 116.291 19.0847 115.523 18.3407Z" fill="white"/>
<path d="M124.505 18.818C123.523 18.2642 122.756 17.4996 122.203 16.5239C121.65 15.5485 121.374 14.4406 121.374 13.2006C121.374 11.9605 121.65 10.853 122.203 9.87711C122.756 8.90179 123.523 8.13714 124.505 7.58299C125.488 7.02926 126.598 6.7522 127.835 6.7522C129.073 6.7522 130.183 7.02926 131.165 7.58299C132.147 8.13714 132.914 8.90179 133.468 9.87711C134.02 10.853 134.297 11.9605 134.297 13.2006C134.297 14.4406 134.02 15.5485 133.468 16.5239C132.914 17.4996 132.147 18.2642 131.165 18.818C130.183 19.3722 129.073 19.6489 127.835 19.6489C126.598 19.6489 125.488 19.3722 124.505 18.818ZM130.571 16.1891C131.272 15.4203 131.623 14.4243 131.623 13.2006C131.623 11.9771 131.272 10.9808 130.571 10.212C129.869 9.44311 128.958 9.05873 127.835 9.05873C126.713 9.05873 125.805 9.44311 125.112 10.212C124.419 10.9808 124.072 11.9771 124.072 13.2006C124.072 14.4243 124.419 15.4203 125.112 16.1891C125.805 16.9579 126.713 17.3423 127.835 17.3423C128.958 17.3423 129.869 16.9579 130.571 16.1891Z" fill="white"/>
<path d="M136.714 9.21367H134.734V6.95679H139.339V9.28808C139.636 8.47817 140.044 7.88682 140.564 7.51482C141.084 7.14279 141.773 6.95679 142.631 6.95679H144.117V9.21367H142.26C141.236 9.21367 140.494 9.61476 140.032 10.4166C139.569 11.2187 139.339 12.3138 139.339 13.7027V19.4566H136.714V9.21367Z" fill="white"/>
</g>
<defs>
<clipPath id="clip0_2958_1262">
<rect width="144.118" height="25" fill="white"/>
</clipPath>
</defs>
</svg>
