<svg width="128" height="25" viewBox="0 0 128 25" fill="none" xmlns="http://www.w3.org/2000/svg">
<g clip-path="url(#clip0_2958_1313)">
<path d="M12.6877 13.0882C12.6877 15.0002 12.1192 16.6107 10.9782 17.9145C9.7875 19.2805 8.24025 19.9662 6.34625 19.9662C4.44725 19.9662 2.905 19.2805 1.71425 17.9145C0.57275 16.6107 0 15.0002 0 13.0882C0 11.171 0.57275 9.56097 1.71425 8.26197C2.91825 6.90872 4.4655 6.23247 6.34625 6.23247C8.24025 6.23247 9.7875 6.90872 10.9782 8.26197C12.1192 9.56097 12.6877 11.171 12.6877 13.0882ZM8.91675 13.0882C8.91675 12.2222 8.7095 11.4912 8.2945 10.9002C7.83025 10.2285 7.1805 9.89472 6.34625 9.89472C5.51175 9.89472 4.86225 10.2285 4.3975 10.9002C3.97825 11.4912 3.77075 12.2222 3.77075 13.0882C3.77075 13.9495 3.97825 14.6892 4.3975 15.298C4.86225 15.9697 5.51175 16.304 6.34625 16.304C7.18075 16.304 7.83025 15.9697 8.2945 15.298C8.7095 14.6892 8.91675 13.9495 8.91675 13.0882ZM26.3225 13.0882C26.3225 14.8742 25.8083 16.4347 24.7752 17.7697C23.6702 19.231 22.245 19.9662 20.513 19.9662C19.2905 19.9662 18.2535 19.61 17.4055 18.9065C17.4055 19.0685 17.4235 19.461 17.4597 20.0885C17.4957 20.7192 17.5135 21.2335 17.5135 21.6395C17.5135 23.8817 16.846 25 15.5112 25C14.9653 25 14.519 24.806 14.1625 24.4225C13.8108 24.035 13.6348 23.5695 13.6348 23.02V8.43797C13.6348 7.90563 13.8152 7.44563 14.176 7.05797C14.5367 6.67447 14.9835 6.48097 15.5157 6.48097C16.3183 6.48097 16.9047 6.88147 17.2747 7.68047C18.0641 6.71513 19.142 6.23247 20.5085 6.23247C22.245 6.23247 23.6657 6.95372 24.7752 8.40197C25.8037 9.74172 26.3225 11.3022 26.3225 13.0882ZM22.5515 13.0882C22.5515 12.2222 22.34 11.4912 21.925 10.9002C21.46 10.2285 20.8107 9.89472 19.9762 9.89472C19.1418 9.89472 18.4925 10.2285 18.0278 10.9002C17.6127 11.4912 17.4055 12.2222 17.4055 13.0882C17.4055 13.9495 17.6127 14.6892 18.0278 15.298C18.4925 15.9697 19.142 16.304 19.9762 16.304C20.8107 16.304 21.46 15.9697 21.925 15.298C22.34 14.6892 22.5515 13.9495 22.5515 13.0882ZM40.0428 12.6827C40.0428 13.3135 39.8937 13.7465 39.596 13.9905C39.2985 14.2292 38.834 14.351 38.207 14.351H31.4007C31.4007 15.0726 31.7391 15.6272 32.4157 16.0147C32.9615 16.3175 33.629 16.4712 34.4183 16.4712C35.032 16.4712 35.767 16.2675 36.6285 15.8667C37.49 15.4605 38.0445 15.2617 38.284 15.2617C38.7212 15.2617 39.091 15.4197 39.3978 15.7445C39.6997 16.065 39.8535 16.4527 39.8535 16.8995C39.8535 17.9315 39.0821 18.7358 37.5392 19.3125C36.3623 19.7452 35.167 19.9662 33.945 19.9662C31.9785 19.9662 30.3907 19.3125 29.1775 18.0092C27.964 16.7055 27.3555 15.0682 27.3555 13.0882C27.3555 11.2025 27.9867 9.59247 29.2495 8.24897C30.5077 6.90422 32.0732 6.23247 33.9403 6.23247C35.6768 6.23247 37.129 6.86847 38.293 8.14022C39.4562 9.41247 40.0428 10.9277 40.0428 12.6827ZM36.2723 11.735C36.254 11.1575 35.988 10.6345 35.4738 10.1605C34.9595 9.68722 34.414 9.45297 33.8365 9.45297C33.2412 9.45297 32.6862 9.68722 32.1722 10.1605C31.6582 10.6345 31.4007 11.1575 31.4007 11.735H36.2723ZM52.7122 17.7377C52.7122 18.2885 52.5363 18.7527 52.1847 19.1407C51.8283 19.5245 51.3817 19.7185 50.836 19.7185C49.519 19.7185 48.8602 18.672 48.8602 16.5837C48.8602 16.1822 48.8875 15.551 48.9415 14.6805C49.0003 13.8142 49.0275 13.1785 49.0275 12.777C49.0275 10.562 48.3102 9.45297 46.8805 9.45297C45.4505 9.45297 44.738 10.562 44.738 12.777C44.738 13.1785 44.7605 13.8142 44.801 14.6805C44.8462 15.551 44.8688 16.1822 44.8688 16.5837C44.8688 18.672 44.2193 19.7185 42.9205 19.7185C42.3745 19.7185 41.9282 19.5245 41.5762 19.1407C41.22 18.7527 41.044 18.2885 41.044 17.7377V8.43397C41.044 7.88722 41.22 7.42347 41.5762 7.04897C41.9282 6.66997 42.3792 6.48097 42.925 6.48097C43.827 6.48097 44.4538 6.88147 44.8055 7.68047C45.4145 6.71522 46.4922 6.23247 48.035 6.23247C49.4647 6.23247 50.6015 6.61097 51.4357 7.36422C52.2882 8.17222 52.7122 9.28122 52.7122 10.6932V17.7377ZM64.5423 17.337C64.5423 18.1892 63.9888 18.8655 62.8785 19.3622C61.9994 19.7631 61.044 19.9692 60.0778 19.9662C58.1785 19.9662 56.6362 19.2805 55.4455 17.9145C54.3045 16.6107 53.7318 15.0002 53.7318 13.0882C53.7318 11.171 54.3135 9.55222 55.4815 8.22597C56.6497 6.89572 58.1785 6.23247 60.0778 6.23247C61.1738 6.23247 62.1165 6.39472 62.9015 6.71522C63.9967 7.14822 64.5423 7.82447 64.5423 8.74472C64.5423 9.20897 64.3988 9.61947 64.1095 9.97597C63.8212 10.3277 63.451 10.5082 63.0003 10.5082C62.693 10.5082 62.2513 10.4045 61.674 10.202C61.097 9.99397 60.6372 9.89472 60.299 9.89472C59.4012 9.89472 58.702 10.2149 58.2015 10.8552C57.7365 11.4327 57.5023 12.1725 57.5023 13.0882C57.5023 13.9495 57.7098 14.6805 58.1295 15.2712C58.5935 15.9615 59.2477 16.304 60.082 16.304C60.4523 16.304 60.957 16.1957 61.6017 15.9742C62.2472 15.7585 62.712 15.6457 63.0003 15.6457C63.4202 15.6457 63.7803 15.8257 64.0875 16.1777C64.3898 16.534 64.5423 16.917 64.5423 17.337ZM78.2495 17.7377C78.2495 18.2885 78.074 18.7527 77.7217 19.1407C77.3657 19.5245 76.915 19.7185 76.3682 19.7185C75.5475 19.7185 74.9617 19.3167 74.6097 18.5185C73.8206 19.4838 72.7427 19.9664 71.376 19.9662C69.6265 19.9662 68.192 19.231 67.0817 17.7697C66.0715 16.4347 65.5628 14.8742 65.5628 13.0882C65.5628 11.3022 66.0715 9.74172 67.0817 8.40197C68.21 6.95372 69.6395 6.23247 71.376 6.23247C72.7427 6.23247 73.8206 6.71513 74.6097 7.68047C74.9614 6.88113 75.5476 6.4813 76.3682 6.48097C76.901 6.48097 77.3477 6.67447 77.709 7.05797C78.069 7.44547 78.2495 7.90122 78.2495 8.43397V17.7377ZM74.479 13.0882C74.479 12.2222 74.2718 11.4912 73.8568 10.9002C73.374 10.2285 72.7245 9.89472 71.9085 9.89472C71.0738 9.89472 70.4245 10.2285 69.9595 10.9002C69.5408 11.4912 69.3333 12.2222 69.3333 13.0882C69.3333 13.9495 69.5355 14.6892 69.9368 15.298C70.4155 15.9697 71.0738 16.304 71.9085 16.304C72.7425 16.304 73.3918 15.9697 73.8568 15.298C74.2718 14.6892 74.479 13.9495 74.479 13.0882ZM87.8702 8.18522C87.8702 8.99255 87.4778 9.54722 86.693 9.84922C85.967 10.0932 85.2448 10.3417 84.5238 10.598C83.7337 11.0495 83.3415 11.8882 83.3415 13.1062V17.7377C83.3415 18.2885 83.161 18.7527 82.81 19.1407C82.453 19.5245 82.002 19.7185 81.4565 19.7185C80.9067 19.7185 80.455 19.5245 80.1038 19.1407C79.7467 18.7527 79.5713 18.2885 79.5713 17.7377V8.43397C79.5713 7.88722 79.7467 7.42347 80.0987 7.04897C80.4552 6.67013 80.9065 6.4808 81.4525 6.48097C82.354 6.48097 82.9805 6.88147 83.3327 7.68047C84.1405 6.71522 85.0065 6.23247 85.94 6.23247C86.4718 6.23247 86.9275 6.42597 87.3065 6.80947C87.6805 7.19747 87.8702 7.65747 87.8702 8.18522ZM97.7073 8.35672C97.7073 9.19547 97.378 9.72322 96.7247 9.94922C96.4035 10.0617 95.7312 10.1202 94.7077 10.1202V17.7377C94.7077 18.2885 94.5272 18.7527 94.1762 19.1407C93.819 19.5245 93.3683 19.7185 92.8225 19.7185C92.291 19.7185 91.839 19.5245 91.478 19.1407C91.118 18.7527 90.9372 18.2885 90.9372 17.7377V10.1202C90.1612 10.1202 89.5978 10.021 89.2418 9.82747C88.755 9.55672 88.5145 9.06497 88.5145 8.35672C88.5145 7.64897 88.763 7.16622 89.2635 6.90872C89.6017 6.71922 90.1612 6.62047 90.9372 6.62047V5.00572C90.9372 3.10697 91.5638 2.15997 92.8225 2.15997C94.0765 2.15997 94.7077 3.10697 94.7077 5.00572V6.62047C95.7312 6.62047 96.4035 6.67897 96.7247 6.79147C97.378 7.01697 97.7073 7.54072 97.7073 8.35672ZM128 6.06647C127.99 4.90872 125.851 4.38322 120.313 4.38322C107.319 4.38322 104.022 3.82822 100.494 0.115967C101.978 2.34497 102.79 6.52572 116.524 6.31772C130.854 6.09697 122.112 10.0125 119.569 14.4362C124.156 10.3422 127.986 7.64372 128 6.08322V6.06647ZM109.741 17.9547C109.741 18.475 109.534 18.9739 109.166 19.3418C108.798 19.7096 108.299 19.9163 107.779 19.9165C106.691 19.9165 105.812 19.0375 105.812 17.9547C105.812 17.6964 105.863 17.4407 105.962 17.202C106.061 16.9633 106.205 16.7465 106.388 16.5638C106.571 16.3812 106.787 16.2363 107.026 16.1376C107.265 16.0388 107.52 15.9881 107.779 15.9882C108.862 15.9882 109.741 16.8675 109.741 17.9547ZM118.689 17.9547C118.689 18.475 118.482 18.9739 118.114 19.3418C117.746 19.7096 117.247 19.9163 116.727 19.9165C115.641 19.9165 114.761 19.0375 114.761 17.9547C114.761 17.6965 114.812 17.4407 114.91 17.2021C115.009 16.9634 115.154 16.7466 115.336 16.5639C115.519 16.3813 115.736 16.2364 115.974 16.1376C116.213 16.0389 116.469 15.9881 116.727 15.9882C117.81 15.9882 118.689 16.8675 118.689 17.9547Z" fill="white"/>
</g>
<defs>
<clipPath id="clip0_2958_1313">
<rect width="128" height="25" fill="white"/>
</clipPath>
</defs>
</svg>
