<svg width="99" height="29" viewBox="0 0 99 29" fill="none" xmlns="http://www.w3.org/2000/svg">
<path d="M21.2652 5.28774C21.2454 5.14914 21.1266 5.06994 21.0276 5.06994C20.9286 5.06994 18.9684 5.03034 18.9684 5.03034C18.9684 5.03034 17.325 3.44634 17.1666 3.26814C17.0082 3.10974 16.6914 3.14934 16.5726 3.18894C16.5726 3.18894 16.2558 3.28794 15.741 3.44634C15.6618 3.16914 15.5232 2.83254 15.345 2.47614C14.7708 1.36734 13.8996 0.773342 12.87 0.773342C12.7908 0.773342 12.7314 0.773342 12.6522 0.793142C12.6126 0.753542 12.5928 0.713942 12.5532 0.694142C12.0978 0.218943 11.5236 -0.0186565 10.8306 0.00114344C9.50398 0.0407434 8.17739 1.01094 7.08839 2.71374C6.33599 3.92154 5.76179 5.42633 5.58359 6.59453C4.05899 7.06973 2.98979 7.40633 2.9502 7.40633C2.178 7.64393 2.1582 7.66373 2.0592 8.39633C2.0196 8.95073 0 24.5729 0 24.5729L16.9488 27.5033L24.2946 25.6817C24.2748 25.6817 21.285 5.42634 21.2652 5.28774ZM14.8896 3.72354C14.4936 3.84234 14.058 3.98094 13.5828 4.13934C13.5828 3.46614 13.4838 2.51574 13.1868 1.72374C14.1966 1.88214 14.6916 3.03054 14.8896 3.72354ZM12.6918 4.39674C11.8008 4.67394 10.8306 4.97094 9.86038 5.26794C10.1376 4.21854 10.6524 3.18894 11.286 2.49594C11.5236 2.23854 11.8602 1.96134 12.2364 1.80294C12.6324 2.57514 12.7116 3.66414 12.6918 4.39674ZM10.8702 0.892142C11.187 0.892142 11.4444 0.951542 11.6622 1.10994C11.3058 1.28814 10.9494 1.56534 10.6326 1.92174C9.78118 2.83254 9.12778 4.23834 8.87039 5.60454C8.05859 5.86193 7.26659 6.09953 6.55379 6.31733C7.02899 4.15914 8.83079 0.951542 10.8702 0.892142Z" fill="white"/>
<path d="M21.0265 5.07194C20.9275 5.07194 18.9674 5.03234 18.9674 5.03234C18.9674 5.03234 17.324 3.44834 17.1656 3.27014C17.1062 3.21074 17.027 3.17114 16.9478 3.17114V27.5053L24.2935 25.6837C24.2935 25.6837 21.3037 5.42834 21.2839 5.28974C21.2443 5.15114 21.1255 5.07194 21.0265 5.07194Z" fill="black"/>
<path d="M12.8693 8.85068L12.0179 12.0385C12.0179 12.0385 11.0675 11.6029 9.93886 11.6821C8.27567 11.7811 8.27567 12.8305 8.27567 13.0879C8.37467 14.5135 12.1169 14.8303 12.3347 18.1765C12.4931 20.8099 10.9487 22.6117 8.69147 22.7503C5.99867 22.8889 4.51367 21.3049 4.51367 21.3049L5.08787 18.8695C5.08787 18.8695 6.59267 19.9981 7.78067 19.9189C8.55287 19.8793 8.84986 19.2259 8.81027 18.7903C8.69146 16.9291 5.64227 17.0479 5.44427 13.9789C5.28587 11.4049 6.96887 8.81108 10.6913 8.57348C12.1367 8.47448 12.8693 8.85068 12.8693 8.85068Z" fill="#FD266C"/>
<path d="M34.2348 15.6434C33.3834 15.188 32.9478 14.792 32.9478 14.2574C32.9478 13.5842 33.5616 13.1486 34.512 13.1486C35.6208 13.1486 36.6108 13.604 36.6108 13.604L37.383 11.228C37.383 11.228 36.6702 10.6736 34.5714 10.6736C31.641 10.6736 29.6016 12.3566 29.6016 14.7128C29.6016 16.0592 30.552 17.069 31.8192 17.8016C32.8488 18.3758 33.2052 18.7916 33.2052 19.4054C33.2052 20.039 32.6904 20.5538 31.74 20.5538C30.3342 20.5538 28.9878 19.8212 28.9878 19.8212L28.1562 22.1972C28.1562 22.1972 29.3838 23.0288 31.4628 23.0288C34.4724 23.0288 36.6504 21.5438 36.6504 18.8708C36.6306 17.4254 35.5416 16.3958 34.2348 15.6434Z" fill="white"/>
<path d="M46.2332 10.6365C44.7482 10.6365 43.58 11.3493 42.689 12.4185L42.6494 12.3987L43.9364 5.66675H40.5902L37.3232 22.8135H40.6694L41.7782 16.9527C42.2138 14.7351 43.3622 13.3689 44.4314 13.3689C45.1838 13.3689 45.4808 13.8837 45.4808 14.6163C45.4808 15.0717 45.4412 15.6459 45.3422 16.1013L44.075 22.8135H47.4212L48.728 15.8835C48.8666 15.1509 48.9656 14.2797 48.9656 13.6857C48.9854 11.7849 47.9954 10.6365 46.2332 10.6365Z" fill="white"/>
<path d="M56.5691 10.6375C52.5299 10.6375 49.8569 14.2806 49.8569 18.3396C49.8569 20.9334 51.4607 23.0322 54.4703 23.0322C58.4303 23.0322 61.1033 19.488 61.1033 15.33C61.1231 12.9342 59.7173 10.6375 56.5691 10.6375ZM54.9257 20.478C53.7773 20.478 53.3021 19.5078 53.3021 18.2802C53.3021 16.3596 54.2921 13.2312 56.1137 13.2312C57.3017 13.2312 57.6977 14.2608 57.6977 15.2508C57.6977 17.31 56.6879 20.478 54.9257 20.478Z" fill="white"/>
<path d="M69.6964 10.6375C67.4392 10.6375 66.1522 12.6372 66.1522 12.6372H66.1126L66.3106 10.8355H63.3406C63.202 12.0432 62.9248 13.9044 62.6674 15.2904L60.3311 27.5664H63.6772L64.6078 22.5966H64.687C64.687 22.5966 65.38 23.0322 66.6472 23.0322C70.5874 23.0322 73.1614 18.993 73.1614 14.9142C73.1614 12.657 72.1516 10.6375 69.6964 10.6375ZM66.4888 20.5176C65.6176 20.5176 65.1028 20.0226 65.1028 20.0226L65.6572 16.8942C66.0532 14.7954 67.1422 13.4094 68.3104 13.4094C69.34 13.4094 69.6568 14.3598 69.6568 15.2508C69.6568 17.4288 68.3698 20.5176 66.4888 20.5176Z" fill="white"/>
<path d="M77.9533 5.82666C76.8841 5.82666 76.0327 6.67806 76.0327 7.76706C76.0327 8.75706 76.6663 9.45005 77.6167 9.45005H77.6563C78.7057 9.45005 79.5967 8.73726 79.6165 7.50966C79.6165 6.53946 78.9631 5.82666 77.9533 5.82666Z" fill="white"/>
<path d="M73.2603 22.7958H76.6064L78.8834 10.9158H75.5174L73.2603 22.7958Z" fill="white"/>
<path d="M87.4175 10.8945H85.0812L85.1999 10.3401C85.3979 9.19168 86.0711 8.18188 87.1997 8.18188C87.7937 8.18188 88.2689 8.36008 88.2689 8.36008L88.9223 5.72669C88.9223 5.72669 88.3481 5.42969 87.1007 5.42969C85.9127 5.42969 84.7247 5.76629 83.8139 6.53849C82.6656 7.50868 82.131 8.91448 81.8736 10.3401L81.7746 10.8945H80.2104L79.7154 13.4289H81.2796L79.4976 22.8141H82.8438L84.6257 13.4289H86.9423L87.4175 10.8945Z" fill="white"/>
<path d="M95.496 10.9158C95.496 10.9158 93.3973 16.2024 92.4667 19.0932H92.4271C92.3677 18.1626 91.5955 10.9158 91.5955 10.9158H88.0711L90.0907 21.8256C90.1303 22.0632 90.1105 22.2216 90.0115 22.38C89.6155 23.1324 88.9621 23.8649 88.1899 24.3995C87.5563 24.8549 86.8435 25.1519 86.2891 25.3499L87.2197 28.2011C87.8929 28.0625 89.3185 27.4883 90.5065 26.3795C92.0311 24.9539 93.4567 22.7364 94.902 19.7268L99.0006 10.9158H95.496Z" fill="white"/>
</svg>
