<svg width="45" height="25" viewBox="0 0 45 25" fill="none" xmlns="http://www.w3.org/2000/svg">
<path fill-rule="evenodd" clip-rule="evenodd" d="M4.19008 0H40.8099C41.3603 -4.59106e-08 41.9053 0.101269 42.4138 0.298023C42.9223 0.494777 43.3843 0.783159 43.7734 1.1467C44.1625 1.51023 44.4711 1.9418 44.6816 2.41675C44.892 2.8917 45.0002 3.40072 45 3.91473V16.9622C45 17.476 44.8916 17.9847 44.681 18.4594C44.4704 18.934 44.1618 19.3653 43.7726 19.7285C43.3835 20.0918 42.9216 20.3798 42.4133 20.5763C41.9049 20.7728 41.3601 20.8738 40.8099 20.8736H27.6765L29.474 25L21.5401 20.8736H4.18477C3.07472 20.8723 2.01059 20.4596 1.22599 19.7263C0.4414 18.993 0.000468276 17.9988 0 16.9622V3.91473C-9.91882e-08 2.87676 0.441397 1.88129 1.22714 1.14718C2.01288 0.413075 3.07864 0.000438514 4.19008 0Z" fill="#F6FCFF"/>
<path d="M2.26551 3.54501C2.4041 3.38325 2.57902 3.25187 2.77792 3.16014C2.97682 3.06841 3.19485 3.01856 3.41663 3.01411C4.35051 2.95347 4.88652 3.36473 5.02466 4.24791C5.60081 7.8302 6.21769 10.8711 6.87531 13.3707L10.906 6.21271C11.2708 5.5666 11.7319 5.22479 12.2891 5.18731C13.0967 5.13438 13.6014 5.61456 13.8033 6.62783C14.1826 8.63157 14.7655 10.597 15.5441 12.4974C16.0282 8.13782 16.8363 4.98609 17.9686 3.04223C18.0778 2.82421 18.2487 2.63815 18.4628 2.5041C18.6768 2.37004 18.926 2.29306 19.1835 2.28145C19.6026 2.24927 20.0187 2.37089 20.3434 2.62049C20.5092 2.73736 20.6454 2.88683 20.7424 3.05831C20.8394 3.22979 20.8948 3.4191 20.9048 3.61282C20.9345 3.89874 20.8728 4.18647 20.7277 4.43975C20.0099 5.68347 19.4196 7.75137 18.9568 10.6434C18.4999 13.4352 18.331 15.6189 18.4503 17.1945C18.4921 17.5806 18.4179 17.9701 18.236 18.3191C18.1477 18.4952 18.0101 18.6459 17.8377 18.755C17.6653 18.8642 17.4646 18.9279 17.2567 18.9393C16.7714 18.9724 16.2879 18.759 15.8009 18.3025C14.0914 16.6652 12.7336 14.2291 11.7277 10.9941C10.5471 13.1992 9.66161 14.8487 9.07129 15.9425C7.99101 17.883 7.06539 18.8781 6.29443 18.9277C5.79384 18.9608 5.36763 18.5683 5.0158 17.7502C4.07129 15.5042 3.05831 11.1589 1.97684 4.7143C1.9341 4.5114 1.93772 4.30236 1.98747 4.10086C2.03721 3.89936 2.13196 3.70995 2.26551 3.54501Z" fill="#FD266C"/>
<path d="M41.7942 6.24258C41.4903 5.73042 41.0694 5.28708 40.5613 4.94406C40.0532 4.60104 39.4704 4.36678 38.8544 4.25792C38.526 4.19309 38.1913 4.15983 37.8556 4.15869C36.0941 4.15869 34.6549 5.01485 33.538 6.72716C32.5869 8.18328 32.0918 9.85918 32.1088 11.5648C32.1088 12.8879 32.404 14.0219 32.9943 14.9668C33.2978 15.4795 33.7189 15.9232 34.2274 16.2663C34.7359 16.6094 35.3193 16.8433 35.9359 16.9514C36.2635 17.0177 36.5977 17.0515 36.9329 17.0523C38.7121 17.0523 40.1507 16.1962 41.2487 14.4838C42.1998 13.0173 42.6952 11.3326 42.6797 9.61814C42.6797 8.29504 42.3845 7.16985 41.7942 6.24258ZM39.4742 11.0074C39.2228 12.132 38.7564 12.9794 38.0752 13.5494C37.5356 14.0026 37.0409 14.1872 36.5911 14.1035C36.1413 14.0197 35.7806 13.6492 35.5091 12.992C35.301 12.4936 35.1912 11.9641 35.185 11.4291C35.1832 11.0058 35.2284 10.5835 35.3196 10.1689C35.4949 9.4352 35.8248 8.74143 36.2901 8.128C36.9016 7.28893 37.5403 6.93665 38.2062 7.07117C38.6561 7.15607 39.0161 7.52543 39.2865 8.17927C39.4939 8.67728 39.6031 9.20621 39.6088 9.74052C39.6111 10.166 39.566 10.5906 39.4742 11.0074Z" fill="#FD266C"/>
<path d="M30.2688 6.24258C29.965 5.73042 29.544 5.28708 29.0359 4.94406C28.5278 4.60104 27.945 4.36678 27.329 4.25792C27.0006 4.19309 26.6659 4.15983 26.3302 4.15869C24.5675 4.15869 23.1289 5.01485 22.0144 6.72716C21.062 8.18283 20.5662 9.85893 20.5834 11.5648C20.5834 12.8879 20.8786 14.0219 21.4689 14.9668C21.772 15.4798 22.1929 15.9239 22.7015 16.267C23.2101 16.6102 23.7937 16.8439 24.4105 16.9514C24.7381 17.0177 25.0723 17.0515 25.4075 17.0523C27.1879 17.0523 28.6271 16.1962 29.7251 14.4838C30.6795 13.0181 31.1791 11.3336 31.1684 9.61814C31.1684 8.29504 30.8733 7.16985 30.283 6.24258H30.2688ZM27.9489 11.0074C27.6974 12.1342 27.2298 12.9827 26.5463 13.5527C26.0055 14.0059 25.5108 14.1906 25.0622 14.1068C24.6136 14.023 24.254 13.6514 23.9837 12.992C23.7756 12.4936 23.6658 11.9641 23.6596 11.4291C23.6579 11.0058 23.703 10.5835 23.7942 10.1689C23.971 9.43567 24.3008 8.74217 24.7647 8.128C25.3739 7.29113 26.0126 6.93996 26.6808 7.07448C27.1307 7.15937 27.4902 7.52874 27.7594 8.18257C27.9673 8.6805 28.077 9.20943 28.0834 9.74383C28.0853 10.1671 28.0402 10.5895 27.9489 11.0041V11.0074Z" fill="#FD266C"/>
</svg>
