<svg width="31" height="22" viewBox="0 0 31 22" fill="none" xmlns="http://www.w3.org/2000/svg">
<path d="M3.85547 21.8789C2.58203 21.8789 1.62109 21.5547 0.972656 20.9062C0.324219 20.2656 0 19.3203 0 18.0703V3.80859C0 2.55078 0.324219 1.60156 0.972656 0.960938C1.62109 0.320312 2.57812 0 3.84375 0H24.1172C25.3906 0 26.3516 0.320312 27 0.960938C27.6484 1.60156 27.9727 2.55078 27.9727 3.80859V4.34766C27.5898 4.34766 27.207 4.34766 26.8242 4.34766C26.4492 4.34766 26.0625 4.34766 25.6641 4.34766V3.99609C25.6641 3.42578 25.5156 3.00391 25.2188 2.73047C24.9297 2.44922 24.5195 2.30859 23.9883 2.30859H3.98438C3.4375 2.30859 3.01953 2.44922 2.73047 2.73047C2.44922 3.01172 2.30859 3.43359 2.30859 3.99609V17.8711C2.30859 18.4414 2.45312 18.8672 2.74219 19.1484C3.03125 19.4297 3.44531 19.5703 3.98438 19.5703H18.8555C18.8555 19.7031 18.8594 19.8281 18.8672 19.9453C18.875 20.0703 18.8828 20.1953 18.8906 20.3203C18.9219 20.625 18.9883 20.9062 19.0898 21.1641C19.1914 21.4219 19.3203 21.6602 19.4766 21.8789H3.85547ZM9.44531 18.6445C9.27344 18.6445 9.13281 18.5938 9.02344 18.4922C8.92188 18.3828 8.87109 18.2422 8.87109 18.0703C8.87109 17.8906 8.92188 17.75 9.02344 17.6484C9.13281 17.5391 9.27344 17.4844 9.44531 17.4844H18.8086C18.8086 17.6719 18.8086 17.8633 18.8086 18.0586C18.8086 18.2539 18.8086 18.4492 18.8086 18.6445H9.44531ZM22.5352 21.8789C21.8086 21.8789 21.2383 21.6836 20.8242 21.293C20.418 20.9023 20.2148 20.3555 20.2148 19.6523V7.99219C20.2148 7.29688 20.418 6.75391 20.8242 6.36328C21.2383 5.96484 21.8086 5.76562 22.5352 5.76562H28.043C28.7617 5.76562 29.3203 5.96484 29.7188 6.36328C30.125 6.75391 30.3281 7.29688 30.3281 7.99219V19.6523C30.3281 20.3477 30.125 20.8906 29.7188 21.2812C29.3203 21.6797 28.7617 21.8789 28.043 21.8789H22.5352ZM22.6641 20.1211H27.8906C28.125 20.1211 28.3008 20.0586 28.418 19.9336C28.543 19.8086 28.6055 19.6211 28.6055 19.3711V8.27344C28.6055 8.03125 28.543 7.84766 28.418 7.72266C28.3008 7.58984 28.125 7.52344 27.8906 7.52344H22.6641C22.4297 7.52344 22.25 7.58594 22.125 7.71094C22 7.83594 21.9375 8.02344 21.9375 8.27344V19.3828C21.9375 19.625 22 19.8086 22.125 19.9336C22.25 20.0586 22.4297 20.1211 22.6641 20.1211ZM23.6719 19.5C23.4062 19.5 23.2734 19.3594 23.2734 19.0781C23.2734 18.9609 23.3086 18.8633 23.3789 18.7852C23.457 18.707 23.5547 18.668 23.6719 18.668H26.8594C26.9766 18.668 27.0742 18.707 27.1523 18.7852C27.2383 18.8633 27.2812 18.9609 27.2812 19.0781C27.2812 19.3594 27.1406 19.5 26.8594 19.5H23.6719ZM24.3516 9.19922C24.1875 9.19922 24.0508 9.14844 23.9414 9.04688C23.8398 8.9375 23.7891 8.80078 23.7891 8.63672C23.7891 8.48828 23.8398 8.35938 23.9414 8.25C24.0508 8.14062 24.1875 8.08594 24.3516 8.08594H26.1797C26.3281 8.08594 26.457 8.14062 26.5664 8.25C26.6758 8.35938 26.7305 8.48828 26.7305 8.63672C26.7305 8.80078 26.6758 8.9375 26.5664 9.04688C26.457 9.14844 26.3281 9.19922 26.1797 9.19922H24.3516Z" fill="white"/>
</svg>
