<svg width="26" height="23" viewBox="0 0 26 23" fill="none" xmlns="http://www.w3.org/2000/svg">
<path d="M0 21.1992V1.16016C0 0.515625 0.492188 0 1.14844 0C1.80469 0 2.29688 0.515625 2.29688 1.16016V11.332L5.75391 7.82812C6.32812 7.24219 6.84375 7.00781 7.42969 7.00781C8.01562 7.00781 8.57812 7.26562 9.11719 7.82812L13.3008 12.1523C13.4062 12.2578 13.5117 12.3164 13.6172 12.3164C13.7109 12.3164 13.8281 12.2578 13.9219 12.1523L18.4805 7.52344L16.6523 5.68359C16.1484 5.17969 16.4531 4.51172 17.1562 4.32422L24.0352 2.56641C24.6797 2.40234 25.2539 2.95312 25.0781 3.59766L23.3203 10.5C23.1328 11.2031 22.4414 11.4961 21.9492 11.0039L20.1094 9.15234L15.293 13.9922C14.7305 14.543 14.1914 14.8008 13.6055 14.8008C13.0195 14.8008 12.457 14.5547 11.9297 13.9805L7.74609 9.65625C7.64062 9.55078 7.52344 9.50391 7.42969 9.50391C7.33594 9.50391 7.21875 9.55078 7.125 9.65625L2.29688 14.6133V19.582C2.29688 19.8281 2.37891 19.9102 2.625 19.9102H24.4805C25.125 19.9102 25.6406 20.4023 25.6406 21.0586C25.6406 21.7148 25.125 22.207 24.4805 22.207H1.00781C0.398438 22.207 0 21.8086 0 21.1992Z" fill="white"/>
</svg>
