<svg width="21" height="29" viewBox="0 0 21 29" fill="none" xmlns="http://www.w3.org/2000/svg">
<path d="M6.42188 6.10547C5.70703 6.10547 5.28516 5.66016 5.28516 4.89844V3.66797C5.28516 2.90625 5.70703 2.46094 6.42188 2.46094H7.40625C7.5 1.10156 8.63672 0 10.0312 0C11.4258 0 12.5625 1.10156 12.6445 2.46094H13.6406C14.3438 2.46094 14.7773 2.90625 14.7773 3.66797V4.89844C14.7773 5.66016 14.3438 6.10547 13.6406 6.10547H6.42188ZM10.0312 3.59766C10.6055 3.59766 11.0625 3.11719 11.0625 2.55469C11.0625 1.99219 10.6055 1.52344 10.0312 1.52344C9.45703 1.52344 8.98828 1.99219 8.98828 2.55469C8.98828 3.11719 9.45703 3.59766 10.0312 3.59766ZM3.80859 28.6406C1.32422 28.6406 0 27.3047 0 24.7852V7.05469C0 4.58203 1.28906 3.1875 3.70312 3.1875H3.97266C3.92578 3.33984 3.90234 3.50391 3.90234 3.66797V4.75781C3.90234 5.00391 3.9375 5.23828 3.99609 5.4375H3.75C2.76562 5.4375 2.25 6.08203 2.25 7.07812V24.75C2.25 25.8047 2.82422 26.3906 3.91406 26.3906H16.1484C17.2383 26.3906 17.8125 25.8047 17.8125 24.75V7.07812C17.8125 6.08203 17.2969 5.4375 16.3008 5.4375H16.0547C16.125 5.23828 16.1484 5.00391 16.1484 4.75781V3.66797C16.1484 3.50391 16.1367 3.33984 16.0898 3.1875H16.3594C18.7734 3.1875 20.0508 4.58203 20.0508 7.05469V24.7852C20.0508 27.3047 18.7383 28.6406 16.2422 28.6406H3.80859ZM4.98047 12.6445C4.55859 12.6445 4.21875 12.3047 4.21875 11.8945C4.21875 11.4727 4.55859 11.1445 4.98047 11.1445H15.082C15.5039 11.1445 15.832 11.4727 15.832 11.8945C15.832 12.3047 15.5039 12.6445 15.082 12.6445H4.98047ZM4.98047 16.793C4.54688 16.793 4.21875 16.4531 4.21875 16.0312C4.21875 15.6211 4.54688 15.293 4.98047 15.293H15.082C15.5039 15.293 15.832 15.6211 15.832 16.0312C15.832 16.4531 15.5039 16.793 15.082 16.793H4.98047ZM4.98047 21.1641C4.55859 21.1641 4.21875 20.8242 4.21875 20.4141C4.21875 20.0039 4.54688 19.6641 4.98047 19.6641H10.2305C10.6523 19.6641 10.9805 20.0039 10.9805 20.4141C10.9805 20.8242 10.6406 21.1641 10.2305 21.1641H4.98047Z" fill="white"/>
</svg>
